<?xml version="1.0" encoding="UTF-8" standalone="no"?>
<!-- Created with Inkscape (http://www.inkscape.org/) -->

<svg
   version="1.1"
   id="svg53"
   xml:space="preserve"
   width="666.66669"
   height="666.66669"
   viewBox="0 0 666.66669 666.66669"
   sodipodi:docname="assistant.svg"
   inkscape:version="1.1.1 (c3084ef, 2021-09-22)"
   xmlns:inkscape="http://www.inkscape.org/namespaces/inkscape"
   xmlns:sodipodi="http://sodipodi.sourceforge.net/DTD/sodipodi-0.dtd"
   xmlns="http://www.w3.org/2000/svg"
   xmlns:svg="http://www.w3.org/2000/svg"><defs
     id="defs57"><clipPath
       clipPathUnits="userSpaceOnUse"
       id="clipPath69"><path
         d="M 0,500 H 500 V 0 H 0 Z"
         id="path67" /></clipPath><clipPath
       clipPathUnits="userSpaceOnUse"
       id="clipPath77"><path
         d="M 0,131.484 H 500 V 0 H 0 Z"
         id="path75" /></clipPath><clipPath
       clipPathUnits="userSpaceOnUse"
       id="clipPath91"><path
         d="M 0,500 H 500 V 0 H 0 Z"
         id="path89" /></clipPath><clipPath
       clipPathUnits="userSpaceOnUse"
       id="clipPath99"><path
         d="M 73.9251,88.3338 H 420.275 V 48.3333 H 73.9251 Z"
         id="path97" /></clipPath><clipPath
       clipPathUnits="userSpaceOnUse"
       id="clipPath123"><path
         d="m 229.137,120.239 -72.235,-19.564 c -5.625,-1.523 -9.53,-6.627 -9.53,-12.454 v 0 l 87.92,11.616 87.92,-11.616 c 0,5.827 -3.905,10.931 -9.53,12.454 v 0 l -72.235,19.564 c -2.015,0.546 -4.084,0.818 -6.154,0.818 v 0 c -2.07,0 -4.14,-0.272 -6.156,-0.818"
         id="path121" /></clipPath><clipPath
       clipPathUnits="userSpaceOnUse"
       id="clipPath131"><path
         d="M 169.394,122.259 H 301.191 V 73.0481 H 169.394 Z"
         id="path129" /></clipPath><clipPath
       clipPathUnits="userSpaceOnUse"
       id="clipPath147"><path
         d="M 0,500 H 500 V 0 H 0 Z"
         id="path145" /></clipPath><clipPath
       clipPathUnits="userSpaceOnUse"
       id="clipPath223"><path
         d="m 168.894,202.831 c -7.075,0 -12.81,-5.735 -12.81,-12.81 v 0 c 0,-7.074 5.735,-12.809 12.81,-12.809 v 0 h 132.798 c 7.074,0 12.809,5.735 12.809,12.809 v 0 c 0,7.075 -5.735,12.81 -12.809,12.81 v 0 z"
         id="path221" /></clipPath><clipPath
       clipPathUnits="userSpaceOnUse"
       id="clipPath231"><path
         d="m 149.903,190.022 h 170.65 v -15.087 h -170.65 z"
         id="path229" /></clipPath><clipPath
       clipPathUnits="userSpaceOnUse"
       id="clipPath245"><path
         d="M 0,500 H 500 V 0 H 0 Z"
         id="path243" /></clipPath><clipPath
       clipPathUnits="userSpaceOnUse"
       id="clipPath257"><path
         d="m 216.453,329.55 c -3.368,-1.012 -6.833,-2.054 -10.07,-3.025 v 0 c -9.885,-2.966 -19.188,-7.588 -27.527,-13.671 v 0 c -15.358,-11.206 -35.932,-37.997 -35.932,-37.997 v 0 l 22.386,-8.479 27.962,30.98 c 1.817,2.014 5.145,1.2 5.826,-1.426 v 0 l 14.313,-55.171 h 21.881 21.882 c 0,0 7.659,28.197 13.915,51.387 v 0 c 1.009,3.74 5.453,5.304 8.586,3.025 v 0 l 37.948,-27.618 3.281,19.123 c 0,0 -16.989,16.59 -31.642,27.71 v 0 c -6.634,5.035 -14.102,8.852 -22.079,11.243 v 0 c -4.025,1.207 -8.625,2.589 -13.055,3.92 v 0 c -6.142,1.847 -12.489,2.77 -18.834,2.77 v 0 c -6.349,0 -12.696,-0.923 -18.841,-2.771"
         id="path255" /></clipPath><clipPath
       clipPathUnits="userSpaceOnUse"
       id="clipPath265"><path
         d="m 186.99,295.122 h 97.014 V 274.893 H 186.99 Z"
         id="path263" /></clipPath><clipPath
       clipPathUnits="userSpaceOnUse"
       id="clipPath281"><path
         d="m 189.051,280.579 h 92.853 v -14.057 h -92.853 z"
         id="path279" /></clipPath><clipPath
       clipPathUnits="userSpaceOnUse"
       id="clipPath297"><path
         d="m 196.697,367.853 h 77.191 v -60.341 h -77.191 z"
         id="path295" /></clipPath><clipPath
       clipPathUnits="userSpaceOnUse"
       id="clipPath313"><path
         d="m 195.697,278.853 h 77.191 v -60.341 h -77.191 z"
         id="path311" /></clipPath><clipPath
       clipPathUnits="userSpaceOnUse"
       id="clipPath329"><path
         d="m 296.274,319.615 h 32.389 v -58.757 h -32.389 z"
         id="path327" /></clipPath><clipPath
       clipPathUnits="userSpaceOnUse"
       id="clipPath345"><path
         d="m 128.297,288.68 h 58.658 v -32.567 h -58.658 z"
         id="path343" /></clipPath><clipPath
       clipPathUnits="userSpaceOnUse"
       id="clipPath361"><path
         d="M 0,500 H 500 V 0 H 0 Z"
         id="path359" /></clipPath><clipPath
       clipPathUnits="userSpaceOnUse"
       id="clipPath373"><path
         d="m 226.73,347.67 -2.005,-15.987 c 0,-5.836 4.732,-10.567 10.567,-10.567 v 0 c 5.836,0 10.567,4.731 10.567,10.567 v 0 l -2.004,15.987 c -0.541,4.317 -4.211,7.556 -8.563,7.556 v 0 c -4.35,0 -8.021,-3.239 -8.562,-7.556"
         id="path371" /></clipPath><clipPath
       clipPathUnits="userSpaceOnUse"
       id="clipPath381"><path
         d="m 216.726,355.899 h 37.133 v -22.652 h -37.133 z"
         id="path379" /></clipPath><clipPath
       clipPathUnits="userSpaceOnUse"
       id="clipPath397"><path
         d="M 0,500 H 500 V 0 H 0 Z"
         id="path395" /></clipPath><clipPath
       clipPathUnits="userSpaceOnUse"
       id="clipPath413"><path
         d="m 285.722,382.548 c -0.891,-0.431 -1.395,-1.395 -1.238,-2.373 v 0 l 2.7,-16.928 4.264,-14.387 7.758,-4.92 2.378,-9.076 11.449,-0.69 -2.519,12.564 0.53,0.985 c 1.818,3.377 2.053,7.384 0.645,10.95 v 0 l -3.751,9.494 -14.012,-2.482 -5.106,15.565 c -0.32,0.943 -1.199,1.522 -2.125,1.522 v 0 c -0.326,0 -0.657,-0.072 -0.973,-0.224"
         id="path411" /></clipPath><clipPath
       clipPathUnits="userSpaceOnUse"
       id="clipPath421"><path
         d="m 288.548,374.195 h 25.129 v -24.099 h -25.129 z"
         id="path419" /></clipPath><clipPath
       clipPathUnits="userSpaceOnUse"
       id="clipPath437"><path
         d="M 0,500 H 500 V 0 H 0 Z"
         id="path435" /></clipPath><clipPath
       clipPathUnits="userSpaceOnUse"
       id="clipPath469"><path
         d="m 213.411,240.761 -17.722,-21.549 12.313,-21.647 50.14,-0.551 c 6.803,-0.075 13.066,3.694 16.184,9.74 v 0 c 3.686,7.144 2.184,15.866 -3.679,21.366 v 0 l -13.473,12.641 z"
         id="path467" /></clipPath><clipPath
       clipPathUnits="userSpaceOnUse"
       id="clipPath477"><path
         d="m 232.59,225.99 h 31.077 V 189.667 H 232.59 Z"
         id="path475" /></clipPath><clipPath
       clipPathUnits="userSpaceOnUse"
       id="clipPath493"><path
         d="M 0,500 H 500 V 0 H 0 Z"
         id="path491" /></clipPath><clipPath
       clipPathUnits="userSpaceOnUse"
       id="clipPath505"><path
         d="m 196.729,128.689 c 0,0 6.857,-25.213 1.801,-33.515 v 0 C 193.475,86.871 183.488,75.495 182.326,71.898 v 0 c -2.315,-7.166 16.587,-17.497 24.692,-12.086 v 0 c 8.104,5.413 7.525,30.012 7.568,39.359 v 0 c 0.043,9.347 -1.125,34.914 -1.125,34.914 v 0 z"
         id="path503" /></clipPath><clipPath
       clipPathUnits="userSpaceOnUse"
       id="clipPath517"><path
         d="M 0,500 H 500 V 0 H 0 Z"
         id="path515" /></clipPath><clipPath
       clipPathUnits="userSpaceOnUse"
       id="clipPath529"><path
         d="m 225.182,80.618 c 0.277,-7.314 -4.146,-23.841 8.899,-25.759 v 0 c 13.045,-1.919 26.761,10.393 19.855,19.251 v 0 c -4.291,5.501 -13.124,20.253 -12.354,27.768 v 0 c 0.771,7.514 8.175,25.912 8.175,25.912 v 0 l -17.76,1.037 c -1.755,-7.193 -7.091,-40.893 -6.815,-48.209"
         id="path527" /></clipPath><clipPath
       clipPathUnits="userSpaceOnUse"
       id="clipPath541"><path
         d="M 0,500 H 500 V 0 H 0 Z"
         id="path539" /></clipPath><clipPath
       clipPathUnits="userSpaceOnUse"
       id="clipPath553"><path
         d="m 192.546,214.996 -8.213,-95.217 10.697,-9.412 c 0.419,-0.369 0.976,-0.543 1.53,-0.477 v 0 l 24.991,2.941 0.984,102.165 c 0,8.281 -6.714,14.994 -14.994,14.994 v 0 c -8.282,0 -14.995,-6.713 -14.995,-14.994"
         id="path551" /></clipPath><clipPath
       clipPathUnits="userSpaceOnUse"
       id="clipPath561"><path
         d="m 195.689,236.151 h 31.404 V 107.416 h -31.404 z"
         id="path559" /></clipPath><clipPath
       clipPathUnits="userSpaceOnUse"
       id="clipPath577"><path
         d="M 0,500 H 500 V 0 H 0 Z"
         id="path575" /></clipPath><clipPath
       clipPathUnits="userSpaceOnUse"
       id="clipPath589"><path
         d="m 222.218,209.25 -5.138,-100.302 21.025,-4.322 c 0.474,-0.097 0.967,-0.017 1.385,0.226 v 0 l 14.603,8.488 -2.848,95.186 c 0.201,8.016 -6.135,14.676 -14.152,14.876 v 0 c -0.122,0.004 -0.245,0.005 -0.367,0.005 v 0 c -7.85,0 -14.311,-6.264 -14.508,-14.157"
         id="path587" /></clipPath><clipPath
       clipPathUnits="userSpaceOnUse"
       id="clipPath597"><path
         d="m 236.517,228.692 h 26.71 V 104.474 h -26.71 z"
         id="path595" /></clipPath><clipPath
       clipPathUnits="userSpaceOnUse"
       id="clipPath613"><path
         d="M 0,500 H 500 V 0 H 0 Z"
         id="path611" /></clipPath><clipPath
       clipPathUnits="userSpaceOnUse"
       id="clipPath625"><path
         d="m 201.36,389.763 c -4.986,-28.997 -1.509,-55.589 -1.509,-55.589 v 0 l 11.95,-15.636 c 0.588,-0.771 1.82,-0.314 1.764,0.655 v 0 c -0.741,12.553 -3.043,58.14 1.66,72.07 v 0 c 5.473,16.211 20.067,17.196 20.067,17.196 v 0 c 0,0 14.595,-0.985 20.069,-17.196 v 0 c 4.702,-13.93 2.401,-59.517 1.659,-72.07 v 0 c -0.057,-0.969 1.176,-1.426 1.764,-0.655 v 0 l 11.949,15.636 c 0,0 3.478,26.592 -1.509,55.589 v 0 c -4.985,28.998 -20.066,30.503 -33.932,30.503 v 0 c -13.864,0 -28.945,-1.505 -33.932,-30.503"
         id="path623" /></clipPath><clipPath
       clipPathUnits="userSpaceOnUse"
       id="clipPath633"><path
         d="m 208.001,426.333 h 54.324 v -26.73 h -54.324 z"
         id="path631" /></clipPath><clipPath
       clipPathUnits="userSpaceOnUse"
       id="clipPath649"><path
         d="M 0,500 H 500 V 0 H 0 Z"
         id="path647" /></clipPath><clipPath
       clipPathUnits="userSpaceOnUse"
       id="clipPath669"><path
         d="m 261.859,391.421 v -24.422 c 0,-3.585 2.934,-6.518 6.519,-6.518 v 0 c 3.585,0 6.519,2.933 6.519,6.518 v 0 24.422 c 0,3.584 -2.934,6.518 -6.519,6.518 v 0 c -3.585,0 -6.519,-2.934 -6.519,-6.518"
         id="path667" /></clipPath><clipPath
       clipPathUnits="userSpaceOnUse"
       id="clipPath677"><path
         d="m 258.907,399.603 h 9.471 v -40.342 h -9.471 z"
         id="path675" /></clipPath><clipPath
       clipPathUnits="userSpaceOnUse"
       id="clipPath691"><path
         d="M 0,500 H 500 V 0 H 0 Z"
         id="path689" /></clipPath><clipPath
       clipPathUnits="userSpaceOnUse"
       id="clipPath719"><path
         d="m 195.689,391.421 v -24.422 c 0,-3.585 2.933,-6.518 6.519,-6.518 v 0 c 3.584,0 6.518,2.933 6.518,6.518 v 0 24.422 c 0,3.584 -2.934,6.518 -6.518,6.518 v 0 c -3.586,0 -6.519,-2.934 -6.519,-6.518"
         id="path717" /></clipPath><clipPath
       clipPathUnits="userSpaceOnUse"
       id="clipPath727"><path
         d="m 202.207,399.439 h 8.323 v -40.966 h -8.323 z"
         id="path725" /></clipPath><clipPath
       clipPathUnits="userSpaceOnUse"
       id="clipPath741"><path
         d="M 0,500 H 500 V 0 H 0 Z"
         id="path739" /></clipPath><clipPath
       clipPathUnits="userSpaceOnUse"
       id="clipPath753"><path
         d="m 231.998,369.592 h 6.589 v -9.675 h -6.589 z"
         id="path751" /></clipPath><clipPath
       clipPathUnits="userSpaceOnUse"
       id="clipPath847"><path
         d="m 368.059,275.396 h -15.246 l 4.573,-24.699 h 10.673 10.674 l 4.573,24.699 z"
         id="path845" /></clipPath><clipPath
       clipPathUnits="userSpaceOnUse"
       id="clipPath855"><path
         d="M 350.817,273.414 H 385.4 v -7.63 h -34.583 z"
         id="path853" /></clipPath><clipPath
       clipPathUnits="userSpaceOnUse"
       id="clipPath869"><path
         d="M 0,500 H 500 V 0 H 0 Z"
         id="path867" /></clipPath><clipPath
       clipPathUnits="userSpaceOnUse"
       id="clipPath939"><path
         d="m 76.549,250.371 c -3.985,0 -7.216,-3.231 -7.216,-7.215 v 0 c 0,-3.986 3.231,-7.217 7.216,-7.217 v 0 h 341.102 c 3.985,0 7.216,3.231 7.216,7.217 v 0 c 0,3.984 -3.231,7.215 -7.216,7.215 v 0 z"
         id="path937" /></clipPath><clipPath
       clipPathUnits="userSpaceOnUse"
       id="clipPath947"><path
         d="M 65.0696,243.155 H 427.162 v -9.839 H 65.0696 Z"
         id="path945" /></clipPath><clipPath
       clipPathUnits="userSpaceOnUse"
       id="clipPath961"><path
         d="M 0,500 H 500 V 0 H 0 Z"
         id="path959" /></clipPath><clipPath
       clipPathUnits="userSpaceOnUse"
       id="clipPath973"><path
         d="m 203.094,260.697 c -5.584,0 -10.11,-4.527 -10.11,-10.111 v 0 -0.948 h 23.401 v 0.948 c 0,5.584 -4.527,10.111 -10.11,10.111 v 0 z"
         id="path971" /></clipPath><clipPath
       clipPathUnits="userSpaceOnUse"
       id="clipPath981"><path
         d="m 197.87,264.039 h 6.814 v -8.872 h -6.814 z"
         id="path979" /></clipPath><clipPath
       clipPathUnits="userSpaceOnUse"
       id="clipPath997"><path
         d="m 204.671,264.039 h 6.814 v -8.872 h -6.814 z"
         id="path995" /></clipPath><clipPath
       clipPathUnits="userSpaceOnUse"
       id="clipPath1013"><path
         d="M 0,500 H 500 V 0 H 0 Z"
         id="path1011" /></clipPath><clipPath
       clipPathUnits="userSpaceOnUse"
       id="clipPath1025"><path
         d="m 320.855,419.787 c -3.977,-0.23 -8.596,-0.977 -13.312,-2.766 v 0 c -12.219,-4.634 -19.596,-17.046 -19.596,-17.046 v 0 c 0,0 17.192,10.453 29.797,2.279 v 0 c -0.081,-1.429 -0.131,-2.866 -0.131,-4.315 v 0 c 0,-41.415 33.572,-74.987 74.988,-74.987 v 0 c 41.415,0 74.988,33.572 74.988,74.987 v 0 c 0,41.415 -33.573,74.988 -74.988,74.988 v 0 c -33.814,0 -62.391,-22.384 -71.746,-53.14"
         id="path1023" /></clipPath><clipPath
       clipPathUnits="userSpaceOnUse"
       id="clipPath1061"><path
         d="m 340.035,355.503 -4.284,-6.467 c 13.751,-15.971 34.12,-26.084 56.85,-26.084 v 0 c 4.11,0 8.14,0.33 12.071,0.966 v 0 l -0.533,6.638 c -0.144,1.789 2.092,2.709 3.249,1.335 v 0 l 5.248,-6.233 c 6.554,1.813 12.748,4.493 18.45,7.909 v 0 l -17.758,23.386 c -4.154,5.106 -10.682,7.657 -17.198,6.719 v 0 l -17.495,-2.518 -20.66,2.587 c -0.779,0.098 -1.558,0.146 -2.331,0.146 v 0 c -6.227,0 -12.113,-3.109 -15.609,-8.384"
         id="path1059" /></clipPath><clipPath
       clipPathUnits="userSpaceOnUse"
       id="clipPath1069"><path
         d="m 354.102,385.561 h 49.067 v -38.356 h -49.067 z"
         id="path1067" /></clipPath><clipPath
       clipPathUnits="userSpaceOnUse"
       id="clipPath1085"><path
         d="m 404.883,370.609 h 32.253 v -55.641 h -32.253 z"
         id="path1083" /></clipPath><clipPath
       clipPathUnits="userSpaceOnUse"
       id="clipPath1101"><path
         d="m 320.855,419.787 c -3.977,-0.23 -8.596,-0.977 -13.312,-2.766 v 0 c -12.219,-4.634 -19.596,-17.046 -19.596,-17.046 v 0 c 0,0 17.192,10.453 29.797,2.279 v 0 c -0.081,-1.429 -0.131,-2.866 -0.131,-4.315 v 0 c 0,-41.415 33.572,-74.987 74.988,-74.987 v 0 c 41.415,0 74.988,33.572 74.988,74.987 v 0 c 0,41.415 -33.573,74.988 -74.988,74.988 v 0 c -33.814,0 -62.391,-22.384 -71.746,-53.14"
         id="path1099" /></clipPath><clipPath
       clipPathUnits="userSpaceOnUse"
       id="clipPath1113"><path
         d="m 371.733,375.657 -1.615,-12.886 c 0,-4.703 3.814,-8.517 8.517,-8.517 v 0 c 4.704,0 8.517,3.814 8.517,8.517 v 0 l -1.614,12.886 c -0.437,3.481 -3.395,6.091 -6.903,6.091 v 0 c -3.507,0 -6.465,-2.61 -6.902,-6.091"
         id="path1111" /></clipPath><clipPath
       clipPathUnits="userSpaceOnUse"
       id="clipPath1121"><path
         d="M 363.671,382.29 H 393.6 v -18.258 h -29.929 z"
         id="path1119" /></clipPath><clipPath
       clipPathUnits="userSpaceOnUse"
       id="clipPath1137"><path
         d="m 320.855,419.787 c -3.977,-0.23 -8.596,-0.977 -13.312,-2.766 v 0 c -12.219,-4.634 -19.596,-17.046 -19.596,-17.046 v 0 c 0,0 17.192,10.453 29.797,2.279 v 0 c -0.081,-1.429 -0.131,-2.866 -0.131,-4.315 v 0 c 0,-41.415 33.572,-74.987 74.988,-74.987 v 0 c 41.415,0 74.988,33.572 74.988,74.987 v 0 c 0,41.415 -33.573,74.988 -74.988,74.988 v 0 c -33.814,0 -62.391,-22.384 -71.746,-53.14"
         id="path1135" /></clipPath><clipPath
       clipPathUnits="userSpaceOnUse"
       id="clipPath1153"><path
         d="m 375.624,395.461 h 6.022 v -10.802 h -6.022 z"
         id="path1151" /></clipPath><clipPath
       clipPathUnits="userSpaceOnUse"
       id="clipPath1189"><path
         d="m 411.493,411.823 c -0.895,-0.162 -1.479,-1.033 -1.289,-1.923 v 0 l 4.236,-19.84 6.117,0.127 -7.268,20.623 c -0.241,0.634 -0.847,1.039 -1.505,1.039 v 0 c -0.096,0 -0.193,-0.008 -0.291,-0.026"
         id="path1187" /></clipPath><clipPath
       clipPathUnits="userSpaceOnUse"
       id="clipPath1197"><path
         d="m 408.187,414.802 h 16.116 V 386.64 h -16.116 z"
         id="path1195" /></clipPath><clipPath
       clipPathUnits="userSpaceOnUse"
       id="clipPath1211"><path
         d="m 320.855,419.787 c -3.977,-0.23 -8.596,-0.977 -13.312,-2.766 v 0 c -12.219,-4.634 -19.596,-17.046 -19.596,-17.046 v 0 c 0,0 17.192,10.453 29.797,2.279 v 0 c -0.081,-1.429 -0.131,-2.866 -0.131,-4.315 v 0 c 0,-41.415 33.572,-74.987 74.988,-74.987 v 0 c 41.415,0 74.988,33.572 74.988,74.987 v 0 c 0,41.415 -33.573,74.988 -74.988,74.988 v 0 c -33.814,0 -62.391,-22.384 -71.746,-53.14"
         id="path1209" /></clipPath><clipPath
       clipPathUnits="userSpaceOnUse"
       id="clipPath1243"><path
         d="M 0,500 H 500 V 0 H 0 Z"
         id="path1241" /></clipPath><clipPath
       clipPathUnits="userSpaceOnUse"
       id="clipPath1255"><path
         d="M 0,500 H 500 V 0 H 0 Z"
         id="path1253" /></clipPath></defs><sodipodi:namedview
     id="namedview55"
     pagecolor="#ffffff"
     bordercolor="#666666"
     borderopacity="1.0"
     inkscape:pageshadow="2"
     inkscape:pageopacity="0.0"
     inkscape:pagecheckerboard="0"
     showgrid="false"
     inkscape:zoom="1.2705"
     inkscape:cx="333.72689"
     inkscape:cy="333.33334"
     inkscape:window-width="1372"
     inkscape:window-height="1027"
     inkscape:window-x="0"
     inkscape:window-y="25"
     inkscape:window-maximized="0"
     inkscape:current-layer="g59" /><g
     id="g59"
     inkscape:groupmode="layer"
     inkscape:label="453358-PF8W7W-80"
     transform="matrix(1.3333333,0,0,-1.3333333,0,666.66667)"><path
       d="M 0,0 H 500 V 500 H 0 Z"
       style="fill:#7ab9dc;fill-opacity:1;fill-rule:nonzero;stroke:none"
       id="path61" /><g
       id="g63"><g
         id="g65"
         clip-path="url(#clipPath69)"><g
           id="g71"><g
             id="g73" /><g
             id="g83"><g
               clip-path="url(#clipPath77)"
               opacity="0.100006"
               id="g81"><path
                 d="M 0,131.484 H 500 V 0 H 0 Z"
                 style="fill:#000000;fill-opacity:1;fill-rule:nonzero;stroke:none"
                 id="path79" /></g></g></g></g></g><g
       id="g85"><g
         id="g87"
         clip-path="url(#clipPath91)"><g
           id="g93"><g
             id="g95" /><g
             id="g107"><g
               clip-path="url(#clipPath99)"
               opacity="0.0500031"
               id="g105"><g
                 transform="translate(420.2744,68.334)"
                 id="g103"><path
                   d="m 0,0 c 0,-11.046 -77.533,-20.001 -173.174,-20.001 -95.642,0 -173.175,8.955 -173.175,20.001 0,11.046 77.533,20 173.175,20 C -77.533,20 0,11.046 0,0"
                   style="fill:#000000;fill-opacity:1;fill-rule:nonzero;stroke:none"
                   id="path101" /></g></g></g></g><g
           id="g109"
           transform="translate(276.8652,315.0439)"><path
             d="m 0,0 -1.242,35.792 c -0.251,7.255 -6.782,13.017 -14.752,13.017 h -25.579 -25.579 c -7.97,0 -14.5,-5.762 -14.751,-13.017 L -83.146,0 c -0.321,-9.259 -1.505,-18.477 -3.539,-27.553 l -21.84,-97.469 h 66.718 0.469 66.718 L 3.539,-27.553 C 1.505,-18.477 0.321,-9.259 0,0"
             style="fill:#2a6085;fill-opacity:1;fill-rule:nonzero;stroke:none"
             id="path111" /></g><g
           id="g113"
           transform="translate(313.6826,100.6748)"><path
             d="m 0,0 -72.235,19.564 c -4.031,1.091 -8.279,1.091 -12.31,0 L -156.78,0 c -5.625,-1.522 -9.53,-6.627 -9.53,-12.454 L -78.39,-0.838 9.53,-12.454 C 9.53,-6.627 5.625,-1.522 0,0"
             style="fill:#316b95;fill-opacity:1;fill-rule:nonzero;stroke:none"
             id="path115" /></g></g></g><g
       id="g117"><g
         id="g119"
         clip-path="url(#clipPath123)"><g
           id="g125"><g
             id="g127" /><g
             id="g139"><g
               clip-path="url(#clipPath131)"
               opacity="0.100006"
               id="g137"><g
                 transform="translate(169.3936,89.6533)"
                 id="g135"><path
                   d="m 0,0 c 0,13.589 29.504,32.605 65.899,32.605 36.395,0 65.899,-19.016 65.899,-32.605 0,-13.589 -29.504,-16.605 -65.899,-16.605 C 29.504,-16.605 0,-13.589 0,0"
                   style="fill:#000000;fill-opacity:1;fill-rule:nonzero;stroke:none"
                   id="path133" /></g></g></g></g></g></g><g
       id="g141"><g
         id="g143"
         clip-path="url(#clipPath147)"><g
           id="g149"
           transform="translate(235.2925,98.5117)"><path
             d="M 0,0 V 0 C -3.738,0 -6.769,3.03 -6.769,6.77 V 88.858 H 6.77 V 6.77 C 6.77,3.03 3.739,0 0,0"
             style="fill:#ffffff;fill-opacity:1;fill-rule:nonzero;stroke:none"
             id="path151" /></g><g
           id="g153"
           transform="translate(235.2925,98.5117)"><path
             d="M 0,0 V 0 C -3.738,0 -6.769,3.03 -6.769,6.77 V 88.858 H 6.77 V 6.77 C 6.77,3.03 3.739,0 0,0 Z"
             style="fill:none;stroke:#000000;stroke-width:0.984;stroke-linecap:butt;stroke-linejoin:miter;stroke-miterlimit:10;stroke-dasharray:none;stroke-opacity:1"
             id="path155" /></g><g
           id="g157"
           transform="translate(154.1162,84.2686)"><path
             d="m 0,0 c 0,-3.85 -3.12,-6.97 -6.969,-6.97 -3.849,0 -6.969,3.12 -6.969,6.97 0,3.849 3.12,6.969 6.969,6.969 C -3.12,6.969 0,3.849 0,0"
             style="fill:#00427d;fill-opacity:1;fill-rule:nonzero;stroke:none"
             id="path159" /></g><g
           id="g161"
           transform="translate(283.8857,98.375)"><path
             d="m 0,0 -42.451,17.512 c -3.934,1.624 -8.35,1.624 -12.284,0 L -97.186,0 c -5.523,-2.278 -9.127,-7.664 -9.127,-13.639 l 57.72,11.616 57.72,-11.616 C 9.127,-7.664 5.523,-2.278 0,0"
             style="fill:#316b95;fill-opacity:1;fill-rule:nonzero;stroke:none"
             id="path163" /></g><g
           id="g165"
           transform="translate(317.4531,83.2842)"><path
             d="m 0,0 c 0,-3.849 3.12,-6.969 6.969,-6.969 3.849,0 6.969,3.12 6.969,6.969 0,3.85 -3.12,6.97 -6.969,6.97 C 3.12,6.97 0,3.85 0,0"
             style="fill:#00427d;fill-opacity:1;fill-rule:nonzero;stroke:none"
             id="path167" /></g><g
           id="g169"
           transform="translate(287.2529,80.3809)"><path
             d="m 0,0 c 0,-3.85 3.12,-6.97 6.969,-6.97 3.849,0 6.969,3.12 6.969,6.97 0,3.849 -3.12,6.969 -6.969,6.969 C 3.12,6.969 0,3.849 0,0"
             style="fill:#00427d;fill-opacity:1;fill-rule:nonzero;stroke:none"
             id="path171" /></g><g
           id="g173"
           transform="translate(313.584,83.2842)"><path
             d="m 0,0 c 0,-3.849 3.12,-6.969 6.97,-6.969 3.848,0 6.968,3.12 6.968,6.969 0,3.85 -3.12,6.97 -6.968,6.97 C 3.12,6.97 0,3.85 0,0"
             style="fill:#316b95;fill-opacity:1;fill-rule:nonzero;stroke:none"
             id="path175" /></g><g
           id="g177"
           transform="translate(283.3838,80.3809)"><path
             d="m 0,0 c 0,-3.85 3.12,-6.97 6.97,-6.97 3.848,0 6.968,3.12 6.968,6.97 0,3.849 -3.12,6.969 -6.968,6.969 C 3.12,6.969 0,3.849 0,0"
             style="fill:#316b95;fill-opacity:1;fill-rule:nonzero;stroke:none"
             id="path179" /></g><g
           id="g181"
           transform="translate(184.3164,81.3643)"><path
             d="m 0,0 c 0,-3.849 -3.12,-6.969 -6.969,-6.969 -3.849,0 -6.969,3.12 -6.969,6.969 0,3.85 3.12,6.97 6.969,6.97 C -3.12,6.97 0,3.85 0,0"
             style="fill:#00427d;fill-opacity:1;fill-rule:nonzero;stroke:none"
             id="path183" /></g><g
           id="g185"
           transform="translate(157.6211,84.2686)"><path
             d="m 0,0 c 0,-3.85 -3.121,-6.97 -6.969,-6.97 -3.849,0 -6.97,3.12 -6.97,6.97 0,3.849 3.121,6.969 6.97,6.969 C -3.121,6.969 0,3.849 0,0"
             style="fill:#316b95;fill-opacity:1;fill-rule:nonzero;stroke:none"
             id="path187" /></g><g
           id="g189"
           transform="translate(187.8213,81.3643)"><path
             d="m 0,0 c 0,-3.849 -3.121,-6.969 -6.97,-6.969 -3.848,0 -6.968,3.12 -6.968,6.969 0,3.85 3.12,6.97 6.968,6.97 C -3.121,6.97 0,3.85 0,0"
             style="fill:#316b95;fill-opacity:1;fill-rule:nonzero;stroke:none"
             id="path191" /></g><g
           id="g193"
           transform="translate(287.9951,167.7187)"><path
             d="m 0,0 h -105.406 c -5.615,0 -10.167,4.553 -10.167,10.168 0,5.615 4.552,10.167 10.167,10.167 H 0 c 5.616,0 10.168,-4.552 10.168,-10.167 C 10.168,4.553 5.616,0 0,0"
             style="fill:#316b95;fill-opacity:1;fill-rule:nonzero;stroke:none"
             id="path195" /></g><path
           d="m 182.327,197.237 h -14.701 v 62.317 h 14.701 z"
           style="fill:#316b95;fill-opacity:1;fill-rule:nonzero;stroke:none"
           id="path197" /><g
           id="g199"
           transform="translate(179.5391,245.9434)"><path
             d="m 0,0 h -9.126 c -4.302,0 -7.789,3.487 -7.789,7.789 0,4.302 3.487,7.79 7.789,7.79 H 0 c 4.302,0 7.79,-3.488 7.79,-7.79 C 7.79,3.487 4.302,0 0,0"
             style="fill:#ffffff;fill-opacity:1;fill-rule:nonzero;stroke:none"
             id="path201" /></g><g
           id="g203"
           transform="translate(179.5391,245.9434)"><path
             d="m 0,0 h -9.126 c -4.302,0 -7.789,3.487 -7.789,7.789 0,4.302 3.487,7.79 7.789,7.79 H 0 c 4.302,0 7.79,-3.488 7.79,-7.79 C 7.79,3.487 4.302,0 0,0 Z"
             style="fill:none;stroke:#000000;stroke-width:0.984;stroke-linecap:butt;stroke-linejoin:miter;stroke-miterlimit:10;stroke-dasharray:none;stroke-opacity:1"
             id="path205" /></g><path
           d="m 303.485,197.237 h -14.7 v 62.317 h 14.7 z"
           style="fill:#316b95;fill-opacity:1;fill-rule:nonzero;stroke:none"
           id="path207" /><g
           id="g209"
           transform="translate(300.6982,245.9434)"><path
             d="m 0,0 h -9.126 c -4.302,0 -7.789,3.487 -7.789,7.789 0,4.302 3.487,7.79 7.789,7.79 H 0 c 4.302,0 7.789,-3.488 7.789,-7.79 C 7.789,3.487 4.302,0 0,0"
             style="fill:#316b95;fill-opacity:1;fill-rule:nonzero;stroke:none"
             id="path211" /></g><g
           id="g213"
           transform="translate(301.6914,177.2119)"><path
             d="m 0,0 h -132.798 c -7.074,0 -12.809,5.735 -12.809,12.81 0,7.075 5.735,12.809 12.809,12.809 H 0 c 7.074,0 12.81,-5.734 12.81,-12.809 C 12.81,5.735 7.074,0 0,0"
             style="fill:#316b95;fill-opacity:1;fill-rule:nonzero;stroke:none"
             id="path215" /></g></g></g><g
       id="g217"><g
         id="g219"
         clip-path="url(#clipPath223)"><g
           id="g225"><g
             id="g227" /><g
             id="g237"><g
               clip-path="url(#clipPath231)"
               opacity="0.100006"
               id="g235"><path
                 d="M 320.554,174.935 H 149.903 v 15.087 h 170.651 z"
                 style="fill:#000000;fill-opacity:1;fill-rule:nonzero;stroke:none"
                 id="path233" /></g></g></g></g></g><g
       id="g239"><g
         id="g241"
         clip-path="url(#clipPath245)"><g
           id="g247"
           transform="translate(320.9043,286.6782)"><path
             d="m 0,0 c 0,0 -16.989,16.59 -31.643,27.71 -6.633,5.035 -14.101,8.851 -22.079,11.243 -4.024,1.206 -8.624,2.589 -13.053,3.92 -12.289,3.694 -25.389,3.693 -37.677,-10e-4 -3.367,-1.013 -6.833,-2.054 -10.069,-3.025 -9.886,-2.967 -19.189,-7.588 -27.527,-13.671 -15.358,-11.206 -35.931,-37.997 -35.931,-37.997 l 22.385,-8.479 27.962,30.98 c 1.817,2.014 5.145,1.199 5.826,-1.427 l 14.313,-55.17 h 21.881 21.882 c 0,0 7.659,28.196 13.915,51.387 1.008,3.74 5.453,5.304 8.586,3.025 l 37.948,-27.619 z"
             style="fill:#f28905;fill-opacity:1;fill-rule:nonzero;stroke:none"
             id="path249" /></g></g></g><g
       id="g251"><g
         id="g253"
         clip-path="url(#clipPath257)"><g
           id="g259"><g
             id="g261" /><g
             id="g273"><g
               clip-path="url(#clipPath265)"
               opacity="0.149994"
               id="g271"><g
                 transform="translate(233.7124,274.8926)"
                 id="g269"><path
                   d="m 0,0 c -9.398,0 -35.184,0.828 -46.723,9.447 l 7.067,9.459 C -27.37,9.728 28.343,8.88 43.092,20.229 l 7.2,-9.358 C 37.521,1.045 9.479,0.069 1.188,0.004 0.829,0.001 0.431,0 0,0"
                   style="fill:#ffffff;fill-opacity:1;fill-rule:nonzero;stroke:none"
                   id="path267" /></g></g></g></g><g
           id="g275"><g
             id="g277" /><g
             id="g289"><g
               clip-path="url(#clipPath281)"
               opacity="0.149994"
               id="g287"><g
                 transform="translate(233.5562,266.522)"
                 id="g285"><path
                   d="m 0,0 c -16.089,0 -35.839,2.289 -44.505,8.763 l 2.944,3.942 c 6.431,-4.804 23.657,-7.948 42.84,-7.78 20.066,0.157 36.953,3.656 44.069,9.132 l 3,-3.9 C 40.304,3.968 22.722,0.173 1.317,0.005 0.881,0.002 0.442,0 0,0"
                   style="fill:#ffffff;fill-opacity:1;fill-rule:nonzero;stroke:none"
                   id="path283" /></g></g></g></g><g
           id="g291"><g
             id="g293" /><g
             id="g305"><g
               clip-path="url(#clipPath297)"
               opacity="0.0500031"
               id="g303"><g
                 transform="translate(196.6973,337.6821)"
                 id="g301"><path
                   d="M 0,0 C 0,16.663 17.28,30.17 38.595,30.17 59.911,30.17 77.19,16.663 77.19,0 77.19,-16.663 59.911,-30.17 38.595,-30.17 17.28,-30.17 0,-16.663 0,0"
                   style="fill:#000000;fill-opacity:1;fill-rule:nonzero;stroke:none"
                   id="path299" /></g></g></g></g><g
           id="g307"><g
             id="g309" /><g
             id="g321"><g
               clip-path="url(#clipPath313)"
               opacity="0.0500031"
               id="g319"><g
                 transform="translate(195.6973,248.6826)"
                 id="g317"><path
                   d="M 0,0 C 0,16.663 17.28,30.171 38.595,30.171 59.911,30.171 77.19,16.663 77.19,0 77.19,-16.662 59.911,-30.17 38.595,-30.17 17.28,-30.17 0,-16.662 0,0"
                   style="fill:#000000;fill-opacity:1;fill-rule:nonzero;stroke:none"
                   id="path315" /></g></g></g></g><g
           id="g323"><g
             id="g325" /><g
             id="g337"><g
               clip-path="url(#clipPath329)"
               opacity="0.0500031"
               id="g335"><g
                 transform="translate(298.3203,286.4116)"
                 id="g333"><path
                   d="M 0,0 C -4.349,16.085 -1.539,30.837 6.274,32.95 14.088,35.062 23.948,23.735 28.296,7.65 32.645,-8.436 29.835,-23.187 22.021,-25.3 14.208,-27.413 4.348,-16.085 0,0"
                   style="fill:#000000;fill-opacity:1;fill-rule:nonzero;stroke:none"
                   id="path331" /></g></g></g></g><g
           id="g339"><g
             id="g341" /><g
             id="g353"><g
               clip-path="url(#clipPath345)"
               opacity="0.0500031"
               id="g351"><g
                 transform="translate(153.6855,258.2798)"
                 id="g349"><path
                   d="M 0,0 C -16.049,4.48 -27.295,14.432 -25.119,22.228 -22.943,30.024 -8.168,32.713 7.88,28.233 23.93,23.753 35.176,13.802 33,6.005 30.824,-1.791 16.049,-4.479 0,0"
                   style="fill:#000000;fill-opacity:1;fill-rule:nonzero;stroke:none"
                   id="path347" /></g></g></g></g></g></g><g
       id="g355"><g
         id="g357"
         clip-path="url(#clipPath361)"><g
           id="g363"
           transform="translate(235.2925,321.1162)"><path
             d="m 0,0 v 0 c -5.836,0 -10.567,4.731 -10.567,10.567 l 2.004,15.987 c 0.542,4.317 4.212,7.556 8.563,7.556 4.351,0 8.021,-3.239 8.563,-7.556 L 10.567,10.567 C 10.567,4.731 5.836,0 0,0"
             style="fill:#fdc4a5;fill-opacity:1;fill-rule:nonzero;stroke:none"
             id="path365" /></g></g></g><g
       id="g367"><g
         id="g369"
         clip-path="url(#clipPath373)"><g
           id="g375"><g
             id="g377" /><g
             id="g389"><g
               clip-path="url(#clipPath381)"
               opacity="0.0500031"
               id="g387"><g
                 transform="translate(216.7261,344.5728)"
                 id="g385"><path
                   d="M 0,0 C 0,6.255 8.313,11.326 18.566,11.326 28.82,11.326 37.133,6.255 37.133,0 37.133,-6.255 28.82,-11.326 18.566,-11.326 8.313,-11.326 0,-6.255 0,0"
                   style="fill:#000000;fill-opacity:1;fill-rule:nonzero;stroke:none"
                   id="path383" /></g></g></g></g></g></g><g
       id="g391"><g
         id="g393"
         clip-path="url(#clipPath397)"><g
           id="g399"
           transform="translate(235.2925,339.1553)"><path
             d="m 0,0 v 0 c -15.072,0 -27.291,12.219 -27.291,27.291 v 22.822 c 0,15.073 12.219,27.291 27.291,27.291 15.073,0 27.292,-12.218 27.292,-27.291 V 27.291 C 27.292,12.219 15.073,0 0,0"
             style="fill:#fdc4a5;fill-opacity:1;fill-rule:nonzero;stroke:none"
             id="path401" /></g><g
           id="g403"
           transform="translate(301.584,334.8643)"><path
             d="m 0,0 -2.378,9.076 -7.758,4.919 -4.264,14.388 -2.701,16.928 c -0.156,0.977 0.348,1.941 1.239,2.372 1.213,0.586 2.665,-0.022 3.098,-1.297 l 5.107,-15.565 14.011,2.482 3.75,-9.493 c 1.41,-3.567 1.174,-7.574 -0.643,-10.951 L 8.931,11.875 11.448,-0.69 Z"
             style="fill:#fdc4a5;fill-opacity:1;fill-rule:nonzero;stroke:none"
             id="path405" /></g></g></g><g
       id="g407"><g
         id="g409"
         clip-path="url(#clipPath413)"><g
           id="g415"><g
             id="g417" /><g
             id="g429"><g
               clip-path="url(#clipPath421)"
               opacity="0.0500031"
               id="g427"><g
                 transform="translate(288.5479,362.1455)"
                 id="g425"><path
                   d="m 0,0 c 0,-6.654 5.625,-12.049 12.564,-12.049 6.94,0 12.565,5.395 12.565,12.049 0,6.655 -5.625,12.049 -12.565,12.049 C 5.625,12.049 0,6.655 0,0"
                   style="fill:#000000;fill-opacity:1;fill-rule:nonzero;stroke:none"
                   id="path423" /></g></g></g></g></g></g><g
       id="g431"><g
         id="g433"
         clip-path="url(#clipPath437)"><g
           id="g439"
           transform="translate(326.4941,269.8413)"><path
             d="m 0,0 -0.327,-0.549 c -1.724,-2.888 -5.489,-3.785 -8.33,-1.985 l -1.077,0.683 c -7.175,4.548 -11.868,12.136 -12.729,20.587 l -5.135,50.357 14.892,2.128 15.34,-48.706 C 5.008,14.978 4.05,6.786 0,0"
             style="fill:#f28905;fill-opacity:1;fill-rule:nonzero;stroke:none"
             id="path441" /></g><g
           id="g443"
           transform="translate(299.168,356.4668)"><path
             d="m 0,0 -0.146,-0.04 c -1.311,-0.354 -2.672,0.428 -3.026,1.738 l -3.204,11.853 c -0.354,1.309 0.428,2.671 1.737,3.025 l 0.147,0.039 c 1.309,0.354 2.671,-0.428 3.025,-1.738 L 1.737,3.025 C 2.091,1.715 1.31,0.354 0,0"
             style="fill:#fdc4a5;fill-opacity:1;fill-rule:nonzero;stroke:none"
             id="path445" /></g><g
           id="g447"
           transform="translate(304.8682,355.7476)"><path
             d="M 0,0 -0.146,-0.04 C -1.457,-0.394 -2.818,0.388 -3.172,1.698 L -6.376,13.55 c -0.354,1.31 0.428,2.671 1.737,3.026 l 0.147,0.039 c 1.309,0.354 2.671,-0.428 3.025,-1.738 L 1.737,3.025 C 2.091,1.715 1.31,0.354 0,0"
             style="fill:#fdc4a5;fill-opacity:1;fill-rule:nonzero;stroke:none"
             id="path449" /></g><g
           id="g451"
           transform="translate(309.4346,356.7168)"><path
             d="m 0,0 -0.126,-0.034 c -1.128,-0.305 -2.3,0.368 -2.604,1.496 l -2.759,10.205 c -0.305,1.127 0.368,2.3 1.496,2.604 l 0.126,0.034 c 1.128,0.305 2.3,-0.368 2.604,-1.495 L 1.496,2.604 C 1.801,1.477 1.128,0.305 0,0"
             style="fill:#fdc4a5;fill-opacity:1;fill-rule:nonzero;stroke:none"
             id="path453" /></g><g
           id="g455"
           transform="translate(302.4746,349.7681)"><path
             d="m 0,0 c -0.454,-2.269 -2.662,-3.737 -4.93,-3.276 -1.508,0.307 -3.231,0.721 -4.715,1.096 -2.159,0.547 -3.76,2.359 -4.05,4.568 -0.261,1.994 -0.557,4.303 -0.688,5.512 -0.063,0.585 0.139,1.163 0.55,1.583 l 3.854,3.941 c 0.403,0.412 0.966,0.626 1.541,0.587 L -0.959,13.5 c 0.68,-0.066 1.087,-0.786 0.794,-1.402 L -0.5,11.394 C -1.236,9.848 -2.813,8.88 -4.524,8.925 l -2.699,0.07 0.628,-3.156 2.344,-0.193 C -1.431,5.415 0.557,2.775 0,0"
             style="fill:#fdc4a5;fill-opacity:1;fill-rule:nonzero;stroke:none"
             id="path457" /></g><g
           id="g459"
           transform="translate(213.4111,240.7607)"><path
             d="m 0,0 -17.723,-21.549 12.313,-21.646 50.14,-0.552 c 6.803,-0.075 13.067,3.694 16.185,9.74 3.686,7.144 2.184,15.866 -3.679,21.366 L 43.763,0 Z"
             style="fill:#00427d;fill-opacity:1;fill-rule:nonzero;stroke:none"
             id="path461" /></g></g></g><g
       id="g463"><g
         id="g465"
         clip-path="url(#clipPath469)"><g
           id="g471"><g
             id="g473" /><g
             id="g485"><g
               clip-path="url(#clipPath477)"
               opacity="0.100006"
               id="g483"><g
                 transform="translate(248.1284,189.667)"
                 id="g481"><path
                   d="m 0,0 v 0 c -8.546,0 -15.538,6.992 -15.538,15.538 v 5.247 c 0,8.546 6.992,15.538 15.538,15.538 8.546,0 15.539,-6.992 15.539,-15.538 V 15.538 C 15.539,6.992 8.546,0 0,0"
                   style="fill:#000000;fill-opacity:1;fill-rule:nonzero;stroke:none"
                   id="path479" /></g></g></g></g></g></g><g
       id="g487"><g
         id="g489"
         clip-path="url(#clipPath493)"><g
           id="g495"
           transform="translate(196.729,128.6895)"><path
             d="m 0,0 c 0,0 6.857,-25.214 1.801,-33.516 -5.055,-8.302 -15.041,-19.678 -16.203,-23.275 -2.316,-7.166 16.587,-17.497 24.691,-12.086 8.104,5.412 7.524,30.011 7.568,39.358 0.043,9.348 -1.125,34.915 -1.125,34.915 z"
             style="fill:#00427d;fill-opacity:1;fill-rule:nonzero;stroke:none"
             id="path497" /></g></g></g><g
       id="g499"><g
         id="g501"
         clip-path="url(#clipPath505)"><g
           id="g507"
           transform="translate(195.6885,96.1943)"><path
             d="m 0,0 -0.899,-12.631 c -0.2,-2.811 1.39,-5.444 3.971,-6.576 2.758,-1.209 5.984,-0.418 7.87,1.929 L 26.846,2.51 18.897,41.026 -5.474,39.874 Z"
             style="fill:#fdc4a5;fill-opacity:1;fill-rule:nonzero;stroke:none"
             id="path509" /></g></g></g><g
       id="g511"><g
         id="g513"
         clip-path="url(#clipPath517)"><g
           id="g519"
           transform="translate(231.9966,128.8271)"><path
             d="m 0,0 c -1.754,-7.193 -7.091,-40.894 -6.814,-48.209 0.276,-7.314 -4.146,-23.841 8.898,-25.76 13.045,-1.919 26.761,10.394 19.855,19.251 -4.291,5.502 -13.124,20.254 -12.354,27.769 0.771,7.514 8.176,25.912 8.176,25.912 z"
             style="fill:#00427d;fill-opacity:1;fill-rule:nonzero;stroke:none"
             id="path521" /></g></g></g><g
       id="g523"><g
         id="g525"
         clip-path="url(#clipPath529)"><g
           id="g531"
           transform="translate(224.002,97.0527)"><path
             d="m 0,0 7.961,-20.414 c 1.205,-3.088 4.37,-4.947 7.653,-4.496 3.437,0.472 6.043,3.337 6.187,6.804 l 0.862,20.744 5.418,33.865 -34.009,-1.179 z"
             style="fill:#fdc4a5;fill-opacity:1;fill-rule:nonzero;stroke:none"
             id="path533" /></g></g></g><g
       id="g535"><g
         id="g537"
         clip-path="url(#clipPath541)"><g
           id="g543"
           transform="translate(221.5508,112.8311)"><path
             d="m 0,0 -24.991,-2.941 c -0.554,-0.066 -1.111,0.108 -1.53,0.477 l -10.697,9.412 8.213,95.217 c 0,8.281 6.713,14.994 14.995,14.994 8.281,0 14.994,-6.713 14.994,-14.994 z"
             style="fill:#00427d;fill-opacity:1;fill-rule:nonzero;stroke:none"
             id="path545" /></g></g></g><g
       id="g547"><g
         id="g549"
         clip-path="url(#clipPath553)"><g
           id="g555"><g
             id="g557" /><g
             id="g569"><g
               clip-path="url(#clipPath561)"
               opacity="0.100006"
               id="g567"><g
                 transform="translate(208.0015,231.2314)"
                 id="g565"><path
                   d="M 0,0 -12.313,-121.444 14.172,-123.815 19.091,-1.241 0,4.92 Z"
                   style="fill:#000000;fill-opacity:1;fill-rule:nonzero;stroke:none"
                   id="path563" /></g></g></g></g></g></g><g
       id="g571"><g
         id="g573"
         clip-path="url(#clipPath577)"><g
           id="g579"
           transform="translate(254.0937,113.3398)"><path
             d="m 0,0 -14.604,-8.488 c -0.418,-0.243 -0.911,-0.324 -1.385,-0.226 l -21.025,4.321 5.138,100.303 c 0.2,8.016 6.86,14.352 14.876,14.153 v 0 c 8.016,-0.201 14.352,-6.861 14.151,-14.876 z"
             style="fill:#00427d;fill-opacity:1;fill-rule:nonzero;stroke:none"
             id="path581" /></g></g></g><g
       id="g583"><g
         id="g585"
         clip-path="url(#clipPath589)"><g
           id="g591"><g
             id="g593" /><g
             id="g605"><g
               clip-path="url(#clipPath597)"
               opacity="0.100006"
               id="g603"><g
                 transform="translate(236.5171,227.916)"
                 id="g601"><path
                   d="m 0,0 2.324,-123.441 24.385,9.829 L 15.667,0.775 Z"
                   style="fill:#000000;fill-opacity:1;fill-rule:nonzero;stroke:none"
                   id="path599" /></g></g></g></g></g></g><g
       id="g607"><g
         id="g609"
         clip-path="url(#clipPath613)"><g
           id="g615"
           transform="translate(269.2246,389.7632)"><path
             d="m 0,0 c -4.985,28.998 -20.067,30.502 -33.932,30.502 -13.865,0 -28.946,-1.504 -33.933,-30.502 -4.986,-28.997 -1.509,-55.589 -1.509,-55.589 l 11.95,-15.636 c 0.589,-0.771 1.821,-0.314 1.764,0.655 -0.741,12.553 -3.043,58.14 1.66,72.07 5.473,16.211 20.068,17.195 20.068,17.195 0,0 14.595,-0.984 20.068,-17.195 4.703,-13.93 2.401,-59.517 1.66,-72.07 -0.058,-0.969 1.175,-1.426 1.764,-0.655 l 11.949,15.636 c 0,0 3.477,26.592 -1.509,55.589"
             style="fill:#8e3900;fill-opacity:1;fill-rule:nonzero;stroke:none"
             id="path617" /></g></g></g><g
       id="g619"><g
         id="g621"
         clip-path="url(#clipPath625)"><g
           id="g627"><g
             id="g629" /><g
             id="g641"><g
               clip-path="url(#clipPath633)"
               opacity="0.100006"
               id="g639"><g
                 transform="translate(262.3252,412.9678)"
                 id="g637"><path
                   d="m 0,0 c 0,-7.381 -12.161,-13.365 -27.162,-13.365 -15.001,0 -27.162,5.984 -27.162,13.365 0,7.382 12.161,13.366 27.162,13.366 C -12.161,13.366 0,7.382 0,0"
                   style="fill:#000000;fill-opacity:1;fill-rule:nonzero;stroke:none"
                   id="path635" /></g></g></g></g></g></g><g
       id="g643"><g
         id="g645"
         clip-path="url(#clipPath649)"><g
           id="g651"
           transform="translate(270.9004,378.4717)"><path
             d="m 0,0 h -6.887 v 16.375 c 0,13.564 -10.917,24.599 -24.335,24.599 h -8.772 c -13.419,0 -24.335,-11.035 -24.335,-24.599 v -7.52 h -6.887 v 7.52 c 0,17.362 14.006,31.487 31.222,31.487 h 8.772 C -14.006,47.862 0,33.737 0,16.375 Z"
             style="fill:#00427d;fill-opacity:1;fill-rule:nonzero;stroke:none"
             id="path653" /></g><g
           id="g655"
           transform="translate(274.8965,367.1562)"><path
             d="m 0,0 v 0 c 2.841,0 5.166,2.325 5.166,5.166 v 13.775 c 0,2.841 -2.325,5.166 -5.166,5.166 -2.841,0 -5.166,-2.325 -5.166,-5.166 V 5.166 C -5.166,2.325 -2.841,0 0,0"
             style="fill:#00427d;fill-opacity:1;fill-rule:nonzero;stroke:none"
             id="path657" /></g><g
           id="g659"
           transform="translate(268.3779,360.4805)"><path
             d="M 0,0 V 0 C 3.585,0 6.519,2.933 6.519,6.519 V 30.94 c 0,3.585 -2.934,6.518 -6.519,6.518 -3.585,0 -6.519,-2.933 -6.519,-6.518 V 6.519 C -6.519,2.933 -3.585,0 0,0"
             style="fill:#316b95;fill-opacity:1;fill-rule:nonzero;stroke:none"
             id="path661" /></g></g></g><g
       id="g663"><g
         id="g665"
         clip-path="url(#clipPath669)"><g
           id="g671"><g
             id="g673" /><g
             id="g683"><g
               clip-path="url(#clipPath677)"
               opacity="0.100006"
               id="g681"><path
                 d="m 268.378,359.261 h -9.471 v 40.342 h 9.471 z"
                 style="fill:#000000;fill-opacity:1;fill-rule:nonzero;stroke:none"
                 id="path679" /></g></g></g></g></g><g
       id="g685"><g
         id="g687"
         clip-path="url(#clipPath691)"><g
           id="g693"
           transform="translate(223.7173,396.9585)"><path
             d="m 0,0 2.748,-12.244 h 12.366 l 2.061,8.948 3.091,-8.948 2.404,13.74 3.435,-13.74 c 0,0 3.155,-1.69 11.16,0.624 0.859,1.956 1.343,4.109 1.343,6.372 v 3.904 c 0,8.784 -7.188,15.972 -15.973,15.972 H 0.515 c -8.785,0 -15.972,-7.188 -15.972,-15.972 v -3.904 c 0,-1.756 0.298,-3.443 0.828,-5.027 6.061,-1.906 12.022,-1.969 12.022,-1.969 z"
             style="fill:#8e3900;fill-opacity:1;fill-rule:nonzero;stroke:none"
             id="path695" /></g><g
           id="g697"
           transform="translate(222.1729,349.2573)"><path
             d="m 0,0 h -12.895 c -4.579,0 -8.304,3.725 -8.304,8.304 v 8.423 c 0,0.815 0.661,1.476 1.476,1.476 0.815,0 1.476,-0.661 1.476,-1.476 V 8.304 c 0,-2.951 2.401,-5.352 5.352,-5.352 H 0 C 0.815,2.952 1.476,2.291 1.476,1.476 1.476,0.661 0.815,0 0,0"
             style="fill:#00427d;fill-opacity:1;fill-rule:nonzero;stroke:none"
             id="path699" /></g><g
           id="g701"
           transform="translate(223.731,347.2896)"><path
             d="m 0,0 h -3.116 c -1.849,0 -3.362,1.513 -3.362,3.362 0,1.849 1.513,3.362 3.362,3.362 H 0 C 1.849,6.724 3.362,5.211 3.362,3.362 3.362,1.513 1.849,0 0,0"
             style="fill:#316b95;fill-opacity:1;fill-rule:nonzero;stroke:none"
             id="path703" /></g><g
           id="g705"
           transform="translate(195.6885,367.1562)"><path
             d="m 0,0 v 0 c -2.841,0 -5.166,2.325 -5.166,5.166 v 13.775 c 0,2.841 2.325,5.166 5.166,5.166 2.841,0 5.166,-2.325 5.166,-5.166 V 5.166 C 5.166,2.325 2.841,0 0,0"
             style="fill:#00427d;fill-opacity:1;fill-rule:nonzero;stroke:none"
             id="path707" /></g><g
           id="g709"
           transform="translate(202.2075,360.4805)"><path
             d="M 0,0 V 0 C -3.585,0 -6.519,2.933 -6.519,6.519 V 30.94 c 0,3.585 2.934,6.518 6.519,6.518 3.585,0 6.519,-2.933 6.519,-6.518 V 6.519 C 6.519,2.933 3.585,0 0,0"
             style="fill:#316b95;fill-opacity:1;fill-rule:nonzero;stroke:none"
             id="path711" /></g></g></g><g
       id="g713"><g
         id="g715"
         clip-path="url(#clipPath719)"><g
           id="g721"><g
             id="g723" /><g
             id="g733"><g
               clip-path="url(#clipPath727)"
               opacity="0.100006"
               id="g731"><path
                 d="m 210.53,358.473 h -8.322 v 40.966 h 8.322 z"
                 style="fill:#000000;fill-opacity:1;fill-rule:nonzero;stroke:none"
                 id="path729" /></g></g></g></g></g><g
       id="g735"><g
         id="g737"
         clip-path="url(#clipPath741)"><g
           id="g743"
           transform="translate(241.9946,356.7793)"><path
             d="m 0,0 c 0,-3.701 -3,-6.702 -6.702,-6.702 -3.701,0 -6.702,3.001 -6.702,6.702 z"
             style="fill:#ffffff;fill-opacity:1;fill-rule:nonzero;stroke:none"
             id="path745" /></g><g
           id="g747"><g
             id="g749" /><g
             id="g761"><g
               clip-path="url(#clipPath753)"
               opacity="0.100006"
               id="g759"><g
                 transform="translate(235.2925,369.5923)"
                 id="g757"><path
                   d="m 0,0 c -1.595,0 -3.529,-5.941 -3.271,-7.299 0.234,-1.236 1.644,-2.181 3.062,-2.343 L -0.21,-9.675 c 0.069,0 0.14,0.012 0.21,0.016 0.07,-0.004 0.141,-0.016 0.21,-0.016 v 0.033 C 1.627,-9.48 3.037,-8.535 3.271,-7.299 3.529,-5.941 1.595,0 0,0"
                   style="fill:#000000;fill-opacity:1;fill-rule:nonzero;stroke:none"
                   id="path755" /></g></g></g></g><g
           id="g763"
           transform="translate(219.1055,369.085)"><path
             d="M 0,0 C -0.668,0 -1.144,0.642 -0.965,1.286 -0.403,3.318 1.459,4.81 3.67,4.81 5.881,4.81 7.743,3.318 8.306,1.286 8.484,0.642 8.008,0 7.34,0 Z"
             style="fill:#333333;fill-opacity:1;fill-rule:nonzero;stroke:none"
             id="path765" /></g><g
           id="g767"
           transform="translate(215.9985,375.6597)"><path
             d="m 0,0 c -0.087,0 -0.177,0.012 -0.265,0.037 -0.524,0.146 -0.83,0.689 -0.683,1.212 0.505,1.807 1.969,3.18 4.017,3.766 C 5.601,5.741 8.365,5.103 10.282,3.351 10.684,2.984 10.711,2.361 10.345,1.96 9.978,1.56 9.355,1.531 8.955,1.897 7.56,3.172 5.463,3.653 3.611,3.123 2.234,2.729 1.264,1.853 0.947,0.72 0.826,0.285 0.43,0 0,0"
             style="fill:#8e3900;fill-opacity:1;fill-rule:nonzero;stroke:none"
             id="path769" /></g><g
           id="g771"
           transform="translate(251.4795,369.085)"><path
             d="M 0,0 C 0.668,0 1.144,0.642 0.966,1.286 0.403,3.318 -1.459,4.81 -3.67,4.81 -5.881,4.81 -7.743,3.318 -8.306,1.286 -8.484,0.642 -8.008,0 -7.34,0 Z"
             style="fill:#333333;fill-opacity:1;fill-rule:nonzero;stroke:none"
             id="path773" /></g><g
           id="g775"
           transform="translate(254.5869,375.6597)"><path
             d="m 0,0 c 0.087,0 0.177,0.012 0.265,0.037 0.523,0.146 0.829,0.689 0.682,1.212 -0.504,1.807 -1.968,3.18 -4.016,3.766 -2.533,0.726 -5.296,0.088 -7.214,-1.664 -0.401,-0.367 -0.429,-0.99 -0.062,-1.391 0.366,-0.4 0.989,-0.429 1.39,-0.063 1.395,1.275 3.491,1.756 5.344,1.226 C -2.234,2.729 -1.264,1.853 -0.947,0.72 -0.826,0.285 -0.431,0 0,0"
             style="fill:#8e3900;fill-opacity:1;fill-rule:nonzero;stroke:none"
             id="path777" /></g><g
           id="g779"
           transform="translate(204.5034,261.8022)"><path
             d="m 0,0 10.388,-1.968 12.755,6.995 c 4.234,2.322 9.398,2.15 13.469,-0.448 L 52.589,-5.62 c 1.883,-1.201 2.446,-3.695 1.261,-5.588 -0.744,-1.189 -2.048,-1.912 -3.45,-1.912 H 38.702 l -3.701,1.927 c -3.937,2.792 -9.01,3.427 -13.514,1.693 l -8.013,-3.085 c -1.395,-0.538 -2.934,-0.571 -4.352,-0.096 l -11.418,3.826 z"
             style="fill:#fdc4a5;fill-opacity:1;fill-rule:nonzero;stroke:none"
             id="path781" /></g><g
           id="g783"
           transform="translate(138.5483,264.2964)"><path
             d="m 0,0 -0.377,0.516 c -1.982,2.716 -1.334,6.533 1.435,8.442 l 1.05,0.725 c 6.994,4.821 15.813,6.168 23.926,3.652 L 74.382,-1.655 70.51,-16.191 19.687,-11.238 C 11.822,-10.472 4.659,-6.383 0,0"
             style="fill:#f28905;fill-opacity:1;fill-rule:nonzero;stroke:none"
             id="path785" /></g><g
           id="g787"
           transform="translate(167.7637,250.6509)"><path
             d="m 0,0 h -70.564 v 64.314 c 0,3.452 2.798,6.25 6.25,6.25 H -6.25 c 3.452,0 6.25,-2.798 6.25,-6.25 z"
             style="fill:#00427d;fill-opacity:1;fill-rule:nonzero;stroke:none"
             id="path789" /></g><path
           d="m 163.804,265.458 h -62.645 v 43.95 h 62.645 z"
           style="fill:#ffffff;fill-opacity:1;fill-rule:nonzero;stroke:none"
           id="path791" /><g
           id="g793"
           transform="translate(130.7339,315.6392)"><path
             d="M 0,0 C 0,0.965 0.783,1.748 1.748,1.748 2.713,1.748 3.496,0.965 3.496,0 3.496,-0.965 2.713,-1.748 1.748,-1.748 0.783,-1.748 0,-0.965 0,0"
             style="fill:#ffffff;fill-opacity:1;fill-rule:nonzero;stroke:none"
             id="path795" /></g><g
           id="g797"
           transform="translate(111.5229,255.1675)"><path
             d="m 0,0 h -5.33 c -1.33,0 -2.419,1.088 -2.419,2.419 0,1.33 1.089,2.418 2.419,2.418 H 0 C 1.331,4.837 2.419,3.749 2.419,2.419 2.419,1.088 1.331,0 0,0"
             style="fill:#316b95;fill-opacity:1;fill-rule:nonzero;stroke:none"
             id="path799" /></g><g
           id="g801"
           transform="translate(123.4653,255.1675)"><path
             d="m 0,0 h -5.33 c -1.33,0 -2.419,1.088 -2.419,2.419 0,1.33 1.089,2.418 2.419,2.418 H 0 C 1.33,4.837 2.418,3.749 2.418,2.419 2.418,1.088 1.33,0 0,0"
             style="fill:#316b95;fill-opacity:1;fill-rule:nonzero;stroke:none"
             id="path803" /></g><g
           id="g805"
           transform="translate(135.4072,255.1675)"><path
             d="m 0,0 h -5.33 c -1.33,0 -2.419,1.088 -2.419,2.419 0,1.33 1.089,2.418 2.419,2.418 H 0 C 1.331,4.837 2.419,3.749 2.419,2.419 2.419,1.088 1.331,0 0,0"
             style="fill:#316b95;fill-opacity:1;fill-rule:nonzero;stroke:none"
             id="path807" /></g><g
           id="g809"
           transform="translate(147.3496,255.1675)"><path
             d="m 0,0 h -5.33 c -1.33,0 -2.419,1.088 -2.419,2.419 0,1.33 1.089,2.418 2.419,2.418 H 0 C 1.33,4.837 2.418,3.749 2.418,2.419 2.418,1.088 1.33,0 0,0"
             style="fill:#316b95;fill-opacity:1;fill-rule:nonzero;stroke:none"
             id="path811" /></g><g
           id="g813"
           transform="translate(159.2915,255.1675)"><path
             d="m 0,0 h -5.33 c -1.33,0 -2.419,1.088 -2.419,2.419 0,1.33 1.089,2.418 2.419,2.418 H 0 C 1.331,4.837 2.419,3.749 2.419,2.419 2.419,1.088 1.331,0 0,0"
             style="fill:#316b95;fill-opacity:1;fill-rule:nonzero;stroke:none"
             id="path815" /></g><g
           id="g817"
           transform="translate(171.2339,255.1675)"><path
             d="m 0,0 h -5.33 c -1.33,0 -2.419,1.088 -2.419,2.419 0,1.33 1.089,2.418 2.419,2.418 H 0 C 1.33,4.837 2.418,3.749 2.418,2.419 2.418,1.088 1.33,0 0,0"
             style="fill:#316b95;fill-opacity:1;fill-rule:nonzero;stroke:none"
             id="path819" /></g><g
           id="g821"
           transform="translate(183.1758,255.1675)"><path
             d="m 0,0 h -5.33 c -1.33,0 -2.419,1.088 -2.419,2.419 0,1.33 1.089,2.418 2.419,2.418 H 0 C 1.331,4.837 2.419,3.749 2.419,2.419 2.419,1.088 1.331,0 0,0"
             style="fill:#316b95;fill-opacity:1;fill-rule:nonzero;stroke:none"
             id="path823" /></g><g
           id="g825"
           transform="translate(186.6025,250.0737)"><path
             d="M 0,0 H -89.391 V 7.513 H 0 C 2.075,7.513 3.756,5.831 3.756,3.756 3.756,1.682 2.075,0 0,0"
             style="fill:#00427d;fill-opacity:1;fill-rule:nonzero;stroke:none"
             id="path827" /></g><g
           id="g829"
           transform="translate(368.0596,316.4712)"><path
             d="M 0,0 V 0 C -7.014,0 -24.606,-1.128 -11.283,-41.075 H 0 11.282 C 24.606,-1.128 7.014,0 0,0"
             style="fill:#39b54a;fill-opacity:1;fill-rule:nonzero;stroke:none"
             id="path831" /></g><g
           id="g833"
           transform="translate(368.0596,316.4712)"><path
             d="M 0,0 V 0 C -3.314,0 -11.626,-1.128 -5.331,-41.075 H 0 5.331 C 11.626,-1.128 3.313,0 0,0"
             style="fill:#8cc63f;fill-opacity:1;fill-rule:nonzero;stroke:none"
             id="path835" /></g><g
           id="g837"
           transform="translate(368.0596,275.3965)"><path
             d="m 0,0 h -15.247 l 4.574,-24.7 H 0 10.673 L 15.247,0 Z"
             style="fill:#00427d;fill-opacity:1;fill-rule:nonzero;stroke:none"
             id="path839" /></g></g></g><g
       id="g841"><g
         id="g843"
         clip-path="url(#clipPath847)"><g
           id="g849"><g
             id="g851" /><g
             id="g861"><g
               clip-path="url(#clipPath855)"
               opacity="0.100006"
               id="g859"><path
                 d="m 385.4,265.784 h -34.584 v 7.63 H 385.4 Z"
                 style="fill:#000000;fill-opacity:1;fill-rule:nonzero;stroke:none"
                 id="path857" /></g></g></g></g></g><g
       id="g863"><g
         id="g865"
         clip-path="url(#clipPath869)"><g
           id="g871"
           transform="translate(368.0596,276.9209)"><path
             d="m 0,0 h -16.01 c -1.43,0 -2.592,-1.57 -2.592,-3.507 0,-1.936 1.162,-3.506 2.592,-3.506 H 0 16.009 c 1.431,0 2.592,1.57 2.592,3.506 C 18.601,-1.57 17.44,0 16.009,0 Z"
             style="fill:#00427d;fill-opacity:1;fill-rule:nonzero;stroke:none"
             id="path873" /></g><g
           id="g875"
           transform="translate(374.9307,306.3813)"><path
             d="m 0,0 -2.011,2.011 c -0.246,0.246 -0.246,0.647 0,0.893 L 0,4.915 c 0.247,0.247 0.647,0.247 0.894,0 l 2.01,-2.011 c 0.247,-0.246 0.247,-0.647 0,-0.893 L 0.894,0 C 0.647,-0.247 0.247,-0.247 0,0"
             style="fill:#ffba07;fill-opacity:1;fill-rule:nonzero;stroke:none"
             id="path877" /></g><g
           id="g879"
           transform="translate(383.7744,300.3828)"><path
             d="m 0,0 -2.011,2.011 c -0.247,0.247 -0.247,0.647 0,0.894 L 0,4.916 c 0.246,0.246 0.646,0.246 0.894,0 L 2.904,2.905 C 3.15,2.658 3.15,2.258 2.904,2.011 L 0.894,0 C 0.646,-0.247 0.246,-0.247 0,0"
             style="fill:#ffba07;fill-opacity:1;fill-rule:nonzero;stroke:none"
             id="path881" /></g><g
           id="g883"
           transform="translate(382.8594,287.7788)"><path
             d="m 0,0 -2.011,2.011 c -0.247,0.247 -0.247,0.647 0,0.893 L 0,4.916 c 0.247,0.246 0.646,0.246 0.894,0 l 2.01,-2.012 c 0.247,-0.246 0.247,-0.646 0,-0.893 L 0.894,0 C 0.646,-0.247 0.247,-0.247 0,0"
             style="fill:#ffba07;fill-opacity:1;fill-rule:nonzero;stroke:none"
             id="path885" /></g><g
           id="g887"
           transform="translate(375.2363,294.4873)"><path
             d="m 0,0 -2.011,2.011 c -0.247,0.247 -0.247,0.647 0,0.894 L 0,4.916 c 0.246,0.246 0.646,0.246 0.894,0 L 2.904,2.905 C 3.15,2.658 3.15,2.258 2.904,2.011 L 0.894,0 C 0.646,-0.247 0.246,-0.247 0,0"
             style="fill:#ffba07;fill-opacity:1;fill-rule:nonzero;stroke:none"
             id="path889" /></g><g
           id="g891"
           transform="translate(374.0166,282.2393)"><path
             d="m 0,0 -2.011,2.011 c -0.247,0.247 -0.247,0.647 0,0.894 L 0,4.915 c 0.246,0.247 0.646,0.247 0.894,0 l 2.01,-2.01 C 3.15,2.658 3.15,2.258 2.904,2.011 L 0.894,0 C 0.646,-0.247 0.246,-0.247 0,0"
             style="fill:#ffba07;fill-opacity:1;fill-rule:nonzero;stroke:none"
             id="path893" /></g><g
           id="g895"
           transform="translate(361.1875,306.3813)"><path
             d="m 0,0 2.011,2.011 c 0.247,0.246 0.247,0.647 0,0.893 L 0,4.915 c -0.246,0.247 -0.646,0.247 -0.894,0 l -2.01,-2.011 c -0.247,-0.246 -0.247,-0.647 0,-0.893 L -0.894,0 C -0.646,-0.247 -0.246,-0.247 0,0"
             style="fill:#ffba07;fill-opacity:1;fill-rule:nonzero;stroke:none"
             id="path897" /></g><g
           id="g899"
           transform="translate(352.3447,300.3828)"><path
             d="m 0,0 2.011,2.011 c 0.247,0.247 0.247,0.647 0,0.894 L 0,4.916 c -0.247,0.246 -0.646,0.246 -0.894,0 l -2.01,-2.011 c -0.247,-0.247 -0.247,-0.647 0,-0.894 L -0.894,0 C -0.646,-0.247 -0.247,-0.247 0,0"
             style="fill:#ffba07;fill-opacity:1;fill-rule:nonzero;stroke:none"
             id="path901" /></g><g
           id="g903"
           transform="translate(353.2598,287.7788)"><path
             d="m 0,0 2.011,2.011 c 0.246,0.247 0.246,0.647 0,0.893 L 0,4.916 c -0.247,0.246 -0.647,0.246 -0.894,0 l -2.01,-2.012 c -0.247,-0.246 -0.247,-0.646 0,-0.893 L -0.894,0 C -0.647,-0.247 -0.247,-0.247 0,0"
             style="fill:#ffba07;fill-opacity:1;fill-rule:nonzero;stroke:none"
             id="path905" /></g><g
           id="g907"
           transform="translate(360.8828,294.4873)"><path
             d="m 0,0 2.011,2.011 c 0.247,0.247 0.247,0.647 0,0.894 L 0,4.916 c -0.247,0.246 -0.646,0.246 -0.894,0 l -2.01,-2.011 c -0.247,-0.247 -0.247,-0.647 0,-0.894 L -0.894,0 C -0.646,-0.247 -0.247,-0.247 0,0"
             style="fill:#ffba07;fill-opacity:1;fill-rule:nonzero;stroke:none"
             id="path909" /></g><g
           id="g911"
           transform="translate(362.1025,282.2393)"><path
             d="m 0,0 2.011,2.011 c 0.247,0.247 0.247,0.647 0,0.894 L 0,4.915 c -0.247,0.247 -0.646,0.247 -0.894,0 l -2.01,-2.01 c -0.247,-0.247 -0.247,-0.647 0,-0.894 L -0.894,0 C -0.646,-0.247 -0.247,-0.247 0,0"
             style="fill:#ffba07;fill-opacity:1;fill-rule:nonzero;stroke:none"
             id="path913" /></g><path
           d="m 388.687,67.156 h -15.81 v 171.079 h 15.81 z"
           style="fill:#ffffff;fill-opacity:1;fill-rule:nonzero;stroke:none"
           id="path915" /><g
           id="g917"
           transform="translate(380.7832,61.0752)"><path
             d="M 0,0 V 0 C -3.358,0 -6.081,2.723 -6.081,6.081 H 6.08 C 6.08,2.723 3.357,0 0,0"
             style="fill:#cccccc;fill-opacity:1;fill-rule:nonzero;stroke:none"
             id="path919" /></g><path
           d="m 118.698,67.156 h -15.81 v 171.079 h 15.81 z"
           style="fill:#ffffff;fill-opacity:1;fill-rule:nonzero;stroke:none"
           id="path921" /><path
           d="M 86.389,223.476 H 407.812 V 235.94 H 86.389 Z"
           style="fill:#cccccc;fill-opacity:1;fill-rule:nonzero;stroke:none"
           id="path923" /><g
           id="g925"
           transform="translate(110.793,61.0752)"><path
             d="M 0,0 V 0 C -3.358,0 -6.081,2.723 -6.081,6.081 H 6.081 C 6.081,2.723 3.358,0 0,0"
             style="fill:#cccccc;fill-opacity:1;fill-rule:nonzero;stroke:none"
             id="path927" /></g><g
           id="g929"
           transform="translate(417.6514,235.9395)"><path
             d="m 0,0 h -341.103 c -3.984,0 -7.215,3.23 -7.215,7.216 0,3.984 3.231,7.215 7.215,7.215 L 0,14.431 C 3.984,14.431 7.215,11.2 7.215,7.216 7.215,3.23 3.984,0 0,0"
             style="fill:#ffffff;fill-opacity:1;fill-rule:nonzero;stroke:none"
             id="path931" /></g></g></g><g
       id="g933"><g
         id="g935"
         clip-path="url(#clipPath939)"><g
           id="g941"><g
             id="g943" /><g
             id="g953"><g
               clip-path="url(#clipPath947)"
               opacity="0.100006"
               id="g951"><path
                 d="M 427.162,233.315 H 65.07 v 9.84 h 362.092 z"
                 style="fill:#000000;fill-opacity:1;fill-rule:nonzero;stroke:none"
                 id="path949" /></g></g></g></g></g><g
       id="g955"><g
         id="g957"
         clip-path="url(#clipPath961)"><g
           id="g963"
           transform="translate(216.3848,249.6387)"><path
             d="m 0,0 h -23.401 v 0.948 c 0,5.583 4.526,10.11 10.11,10.11 h 3.181 C -4.526,11.058 0,6.531 0,0.948 Z"
             style="fill:#00427d;fill-opacity:1;fill-rule:nonzero;stroke:none"
             id="path965" /></g></g></g><g
       id="g967"><g
         id="g969"
         clip-path="url(#clipPath973)"><g
           id="g975"><g
             id="g977" /><g
             id="g989"><g
               clip-path="url(#clipPath981)"
               opacity="0.100006"
               id="g987"><g
                 transform="translate(204.6841,255.1675)"
                 id="g985"><path
                   d="M 0,0 H -4.743 C -5.887,0 -6.814,0.927 -6.814,2.071 V 8.872 H 0 Z"
                   style="fill:#000000;fill-opacity:1;fill-rule:nonzero;stroke:none"
                   id="path983" /></g></g></g></g><g
           id="g991"><g
             id="g993" /><g
             id="g1005"><g
               clip-path="url(#clipPath997)"
               opacity="0.100006"
               id="g1003"><g
                 transform="translate(209.4141,255.1675)"
                 id="g1001"><path
                   d="M 0,0 H -4.743 V 8.872 H 2.071 V 2.071 C 2.071,0.927 1.144,0 0,0"
                   style="fill:#000000;fill-opacity:1;fill-rule:nonzero;stroke:none"
                   id="path999" /></g></g></g></g></g></g><g
       id="g1007"><g
         id="g1009"
         clip-path="url(#clipPath1013)"><g
           id="g1015"
           transform="translate(392.6006,472.9272)"><path
             d="m 0,0 c -33.813,0 -62.391,-22.385 -71.745,-53.141 -3.978,-0.229 -8.597,-0.977 -13.313,-2.765 -12.218,-4.634 -19.595,-17.046 -19.595,-17.046 0,0 17.191,10.452 29.797,2.279 -0.082,-1.429 -0.132,-2.866 -0.132,-4.315 0,-41.415 33.573,-74.988 74.988,-74.988 41.415,0 74.988,33.573 74.988,74.988 C 74.988,-33.573 41.415,0 0,0"
             style="fill:#ffffff;fill-opacity:1;fill-rule:nonzero;stroke:none"
             id="path1017" /></g></g></g><g
       id="g1019"><g
         id="g1021"
         clip-path="url(#clipPath1025)"><g
           id="g1027"
           transform="translate(362.8779,396.2783)"><path
             d="m 0,0 c 0,-3.434 -2.784,-6.219 -6.218,-6.219 -3.434,0 -6.219,2.785 -6.219,6.219 0,3.435 2.785,6.219 6.219,6.219 C -2.784,6.219 0,3.435 0,0"
             style="fill:#fdc4a5;fill-opacity:1;fill-rule:nonzero;stroke:none"
             id="path1029" /></g><g
           id="g1031"
           transform="translate(351.3271,417.5962)"><path
             d="m 0,0 2.581,-22.687 c 0.15,-1.323 1.443,-2.202 2.729,-1.855 0.783,0.21 1.383,0.84 1.558,1.632 l 3.649,16.525 c 1.004,4.551 -3.236,8.514 -7.708,7.206 z"
             style="fill:#8e3900;fill-opacity:1;fill-rule:nonzero;stroke:none"
             id="path1033" /></g><g
           id="g1035"
           transform="translate(410.0664,377.0146)"><path
             d="M 0,0 -0.704,-0.087 C -3.379,-0.42 -5.84,1.496 -6.173,4.171 l -2.961,23.794 c -0.332,2.675 1.584,5.136 4.259,5.469 l 0.705,0.088 c 2.675,0.332 5.136,-1.584 5.469,-4.259 L 4.259,5.469 C 4.592,2.794 2.676,0.333 0,0"
             style="fill:#00427d;fill-opacity:1;fill-rule:nonzero;stroke:none"
             id="path1037" /></g><g
           id="g1039"
           transform="translate(406.999,376.6328)"><path
             d="M 0,0 -0.705,-0.087 C -3.38,-0.42 -5.841,1.496 -6.174,4.171 l -2.96,23.794 c -0.333,2.675 1.583,5.137 4.258,5.469 l 0.705,0.088 c 2.675,0.332 5.136,-1.584 5.469,-4.259 L 4.258,5.469 C 4.591,2.794 2.675,0.333 0,0"
             style="fill:#316b95;fill-opacity:1;fill-rule:nonzero;stroke:none"
             id="path1041" /></g><g
           id="g1043"
           transform="translate(405.6895,378.5078)"><path
             d="m 0,0 c -1.461,0 -2.699,1.093 -2.88,2.543 l -2.96,23.794 c -0.095,0.764 0.116,1.523 0.595,2.137 0.478,0.615 1.162,1.005 1.926,1.1 l 0.705,0.088 c 0.119,0.015 0.239,0.023 0.356,0.023 1.462,0 2.7,-1.094 2.881,-2.544 L 3.583,3.347 C 3.678,2.583 3.467,1.824 2.988,1.21 2.51,0.595 1.826,0.205 1.062,0.11 L 0.358,0.022 C 0.237,0.007 0.118,0 0,0"
             style="fill:#7ab9dc;fill-opacity:1;fill-rule:nonzero;stroke:none"
             id="path1045" /></g><g
           id="g1047"
           transform="translate(406.9795,396.2783)"><path
             d="m 0,0 c 0,-3.434 -2.784,-6.219 -6.219,-6.219 -3.434,0 -6.219,2.785 -6.219,6.219 0,3.435 2.785,6.219 6.219,6.219 C -2.784,6.219 0,3.435 0,0"
             style="fill:#fdc4a5;fill-opacity:1;fill-rule:nonzero;stroke:none"
             id="path1049" /></g><g
           id="g1051"
           transform="translate(438.0664,324.3755)"><path
             d="m 0,0 -24.738,32.578 c -4.155,5.106 -10.683,7.656 -17.198,6.719 l -17.495,-2.519 -20.661,2.588 c -7.059,0.884 -14.01,-2.308 -17.939,-8.239 l -28.554,-43.092 18.042,-6.834 19.556,26.045 c 1.109,1.477 3.461,0.587 3.314,-1.254 l -3.257,-40.881 h 29.499 28.803 l -3.3,41.069 c -0.143,1.789 2.093,2.709 3.249,1.336 l 17.245,-20.48 z"
             style="fill:#ffba07;fill-opacity:1;fill-rule:nonzero;stroke:none"
             id="path1053" /></g></g></g><g
       id="g1055"><g
         id="g1057"
         clip-path="url(#clipPath1061)"><g
           id="g1063"><g
             id="g1065" /><g
             id="g1077"><g
               clip-path="url(#clipPath1069)"
               opacity="0.0500031"
               id="g1075"><g
                 transform="translate(354.1016,366.3828)"
                 id="g1073"><path
                   d="M 0,0 C 0,10.592 10.984,19.178 24.534,19.178 38.083,19.178 49.067,10.592 49.067,0 49.067,-10.591 38.083,-19.178 24.534,-19.178 10.984,-19.178 0,-10.591 0,0"
                   style="fill:#000000;fill-opacity:1;fill-rule:nonzero;stroke:none"
                   id="path1071" /></g></g></g></g><g
           id="g1079"><g
             id="g1081" /><g
             id="g1093"><g
               clip-path="url(#clipPath1085)"
               opacity="0.0500031"
               id="g1091"><g
                 transform="translate(415.9648,370.4663)"
                 id="g1089"><path
                   d="M 0,0 C 8.457,1.542 17.571,-9.601 20.357,-24.887 23.143,-40.173 18.546,-53.814 10.089,-55.355 1.632,-56.897 -7.482,-45.754 -10.268,-30.469 -13.054,-15.183 -8.457,-1.541 0,0"
                   style="fill:#000000;fill-opacity:1;fill-rule:nonzero;stroke:none"
                   id="path1087" /></g></g></g></g></g></g><g
       id="g1095"><g
         id="g1097"
         clip-path="url(#clipPath1101)"><g
           id="g1103"
           transform="translate(378.6357,354.2544)"><path
             d="m 0,0 v 0 c -4.704,0 -8.518,3.813 -8.518,8.517 l 1.616,12.886 c 0.436,3.48 3.394,6.091 6.902,6.091 3.507,0 6.465,-2.611 6.901,-6.091 L 8.517,8.517 C 8.517,3.813 4.703,0 0,0"
             style="fill:#fdc4a5;fill-opacity:1;fill-rule:nonzero;stroke:none"
             id="path1105" /></g></g></g><g
       id="g1107"><g
         id="g1109"
         clip-path="url(#clipPath1113)"><g
           id="g1115"><g
             id="g1117" /><g
             id="g1129"><g
               clip-path="url(#clipPath1121)"
               opacity="0.100006"
               id="g1127"><g
                 transform="translate(363.6709,373.1611)"
                 id="g1125"><path
                   d="m 0,0 c 0,5.042 6.699,9.129 14.965,9.129 8.264,0 14.964,-4.087 14.964,-9.129 0,-5.042 -6.7,-9.129 -14.964,-9.129 C 6.699,-9.129 0,-5.042 0,0"
                   style="fill:#000000;fill-opacity:1;fill-rule:nonzero;stroke:none"
                   id="path1123" /></g></g></g></g></g></g><g
       id="g1131"><g
         id="g1133"
         clip-path="url(#clipPath1137)"><g
           id="g1139"
           transform="translate(378.6357,368.7944)"><path
             d="m 0,0 v 0 c -12.149,0 -21.997,9.848 -21.997,21.997 v 18.395 c 0,12.148 9.848,21.997 21.997,21.997 12.148,0 21.996,-9.849 21.996,-21.997 V 21.997 C 21.996,9.848 12.148,0 0,0"
             style="fill:#fdc4a5;fill-opacity:1;fill-rule:nonzero;stroke:none"
             id="path1141" /></g><g
           id="g1143"
           transform="translate(373.2334,377.5977)"><path
             d="M 0,0 C 0,2.983 2.418,5.402 5.402,5.402 8.386,5.402 10.804,2.983 10.804,0 Z"
             style="fill:#ffffff;fill-opacity:1;fill-rule:nonzero;stroke:none"
             id="path1145" /></g><g
           id="g1147"><g
             id="g1149" /><g
             id="g1161"><g
               clip-path="url(#clipPath1153)"
               opacity="0.100006"
               id="g1159"><g
                 transform="translate(378.6357,395.4604)"
                 id="g1157"><path
                   d="m 0,0 c -1.458,0 -3.226,-6.632 -2.99,-8.148 0.215,-1.38 1.502,-2.435 2.798,-2.616 v -0.038 c 0.063,0 0.128,0.014 0.192,0.019 0.063,-0.005 0.128,-0.019 0.191,-0.019 v 0.038 c 1.296,0.181 2.583,1.236 2.798,2.616 C 3.225,-6.632 1.457,0 0,0"
                   style="fill:#000000;fill-opacity:1;fill-rule:nonzero;stroke:none"
                   id="path1155" /></g></g></g></g><g
           id="g1163"
           transform="translate(365.8477,392.918)"><path
             d="m 0,0 c -0.668,0 -1.182,0.653 -0.96,1.284 0.529,1.51 1.968,2.592 3.659,2.592 1.691,0 3.129,-1.082 3.658,-2.592 C 6.579,0.653 6.065,0 5.397,0 Z"
             style="fill:#333333;fill-opacity:1;fill-rule:nonzero;stroke:none"
             id="path1165" /></g><g
           id="g1167"
           transform="translate(370.8359,402.4971)"><path
             d="m 0,0 c 0.07,0 0.143,-0.01 0.214,-0.03 0.422,-0.117 0.669,-0.555 0.551,-0.977 -0.408,-1.456 -1.587,-2.562 -3.239,-3.035 -2.041,-0.585 -4.268,-0.071 -5.813,1.341 -0.324,0.296 -0.347,0.798 -0.051,1.121 0.296,0.323 0.797,0.346 1.121,0.05 1.124,-1.027 2.814,-1.414 4.307,-0.988 1.109,0.318 1.891,1.024 2.146,1.938 C -0.665,-0.229 -0.347,0 0,0"
             style="fill:#8e3900;fill-opacity:1;fill-rule:nonzero;stroke:none"
             id="path1169" /></g><g
           id="g1171"
           transform="translate(391.4229,392.918)"><path
             d="M 0,0 C 0.668,0 1.182,0.653 0.96,1.284 0.431,2.794 -1.008,3.876 -2.699,3.876 -4.39,3.876 -5.828,2.794 -6.357,1.284 -6.579,0.653 -6.065,0 -5.397,0 Z"
             style="fill:#333333;fill-opacity:1;fill-rule:nonzero;stroke:none"
             id="path1173" /></g><g
           id="g1175"
           transform="translate(386.4346,402.4971)"><path
             d="m 0,0 c -0.07,0 -0.143,-0.01 -0.214,-0.03 -0.422,-0.117 -0.668,-0.555 -0.551,-0.977 0.408,-1.456 1.587,-2.562 3.239,-3.035 2.041,-0.585 4.268,-0.071 5.813,1.341 0.323,0.296 0.347,0.798 0.051,1.121 C 8.042,-1.257 7.54,-1.234 7.217,-1.53 6.093,-2.557 4.403,-2.944 2.91,-2.518 1.801,-2.2 1.019,-1.494 0.764,-0.58 0.665,-0.229 0.347,0 0,0"
             style="fill:#8e3900;fill-opacity:1;fill-rule:nonzero;stroke:none"
             id="path1177" /></g><g
           id="g1179"
           transform="translate(410.2041,409.8994)"><path
             d="m 0,0 4.236,-19.84 6.118,0.128 L 3.085,0.911 C 2.809,1.637 2.054,2.063 1.289,1.924 0.394,1.761 -0.19,0.89 0,0"
             style="fill:#fdc4a5;fill-opacity:1;fill-rule:nonzero;stroke:none"
             id="path1181" /></g></g></g><g
       id="g1183"><g
         id="g1185"
         clip-path="url(#clipPath1189)"><g
           id="g1191"><g
             id="g1193" /><g
             id="g1203"><g
               clip-path="url(#clipPath1197)"
               opacity="0.100006"
               id="g1201"><path
                 d="m 424.303,386.64 h -16.115 v 28.162 h 16.115 z"
                 style="fill:#000000;fill-opacity:1;fill-rule:nonzero;stroke:none"
                 id="path1199" /></g></g></g></g></g><g
       id="g1205"><g
         id="g1207"
         clip-path="url(#clipPath1211)"><g
           id="g1213"
           transform="translate(412.2744,363.8862)"><path
             d="m 0,0 -3.015,8.271 c -0.981,2.694 -0.972,5.648 0.026,8.336 l 2.259,6.084 c 0.479,1.292 0.631,2.684 0.444,4.05 l -1.833,13.316 c -0.089,0.643 0.242,1.27 0.822,1.561 0.726,0.362 1.608,0.09 2.001,-0.619 L 7.388,28.973 c 0.95,-1.709 1.217,-3.715 0.749,-5.614 L 5.373,12.175 8.866,1.298 Z"
             style="fill:#fdc4a5;fill-opacity:1;fill-rule:nonzero;stroke:none"
             id="path1215" /></g><g
           id="g1217"
           transform="translate(436.6377,310.3696)"><path
             d="m 0,0 -0.272,-0.507 c -1.433,-2.668 -4.843,-3.726 -7.543,-2.34 L -8.84,-2.32 c -6.82,3.502 -11.518,9.862 -12.745,17.252 l -7.313,44.04 13.558,2.929 L 1.255,20.039 C 3.822,13.561 3.366,6.27 0,0"
             style="fill:#ffba07;fill-opacity:1;fill-rule:nonzero;stroke:none"
             id="path1219" /></g><g
           id="g1221"
           transform="translate(394.9805,417.9741)"><path
             d="m 0,0 2.581,-22.687 c 0.15,-1.323 1.443,-2.202 2.729,-1.855 0.783,0.21 1.383,0.84 1.558,1.632 l 3.649,16.525 c 1.004,4.551 -3.236,8.514 -7.708,7.206 z"
             style="fill:#8e3900;fill-opacity:1;fill-rule:nonzero;stroke:none"
             id="path1223" /></g><g
           id="g1225"
           transform="translate(384.4326,436.8672)"><path
             d="m 0,0 c -6.859,2.013 -17.654,3.769 -27.193,-10.718 -5.393,-8.19 -9.617,-6.602 -13.54,-5.7 -0.417,-5.898 1.663,-16.576 22.52,-15.331 11.42,0.682 23.93,2.862 31.199,5.458 C 20.257,-23.695 23.653,-6.942 0,0"
             style="fill:#8e3900;fill-opacity:1;fill-rule:nonzero;stroke:none"
             id="path1227" /></g><g
           id="g1229"
           transform="translate(414.7725,418.7705)"><path
             d="M 0,0 C -2.917,0 -4.878,1.961 -4.878,4.4 -4.878,6.935 -2.917,8.896 0,8.896 2.87,8.896 4.83,6.935 4.83,4.4 4.83,1.961 2.87,0 0,0 m 3.157,35.82 c 6.647,0 11.286,-3.587 11.286,-10.234 0,-6.169 -4.447,-9.517 -10.712,-9.565 L 3.492,12.434 h -7.175 l -0.238,8.895 h 2.869 c 4.495,0 7.605,0.814 7.556,4.305 0,2.152 -1.338,3.491 -3.443,3.491 -2.343,0 -3.634,-1.435 -3.634,-3.635 h -7.7 c -0.144,5.739 3.874,10.33 11.43,10.33"
             style="fill:#00427d;fill-opacity:1;fill-rule:nonzero;stroke:none"
             id="path1231" /></g><g
           id="g1233"
           transform="translate(428.9697,405.3081)"><path
             d="m 0,0 c -2.367,0 -3.958,1.591 -3.958,3.57 0,2.057 1.591,3.649 3.958,3.649 2.329,0 3.92,-1.592 3.92,-3.649 C 3.92,1.591 2.329,0 0,0 m 2.562,29.068 c 5.394,0 9.159,-2.911 9.159,-8.305 0,-5.007 -3.61,-7.723 -8.694,-7.762 L 2.833,10.09 h -5.821 l -0.194,7.219 h 2.328 c 3.648,0 6.171,0.659 6.132,3.493 0,1.746 -1.087,2.833 -2.795,2.833 -1.901,0 -2.949,-1.165 -2.949,-2.949 h -6.248 c -0.116,4.656 3.144,8.382 9.276,8.382"
             style="fill:#00427d;fill-opacity:1;fill-rule:nonzero;stroke:none"
             id="path1235" /></g></g></g><g
       id="g1237"><g
         id="g1239"
         clip-path="url(#clipPath1243)"><g
           id="g1245"
           transform="translate(392.6006,472.9272)"><path
             d="m 0,0 c -33.813,0 -62.391,-22.385 -71.745,-53.141 -3.978,-0.229 -8.597,-0.977 -13.313,-2.765 -12.218,-4.634 -19.595,-17.046 -19.595,-17.046 0,0 17.191,10.452 29.797,2.279 -0.082,-1.429 -0.132,-2.866 -0.132,-4.315 0,-41.415 33.573,-74.988 74.988,-74.988 41.415,0 74.988,33.573 74.988,74.988 C 74.988,-33.573 41.415,0 0,0 Z"
             style="fill:none;stroke:#00427d;stroke-width:4;stroke-linecap:round;stroke-linejoin:round;stroke-miterlimit:10;stroke-dasharray:none;stroke-opacity:1"
             id="path1247" /></g></g></g></g></svg>
